<svg width="250" height="250" viewBox="0 0 250 250" fill="none" xmlns="http://www.w3.org/2000/svg">
<rect width="250" height="250" fill="#300D56"/>
<path d="M49.8438 87.75C54.6875 87.75 59.7812 87.9219 65.125 88.2656C70.4688 88.6094 76.0938 89.2812 82 90.2812V102.188C79.9062 101.594 77.5156 101.031 74.8281 100.5C72.5156 100.062 69.7344 99.6406 66.4844 99.2344C63.2344 98.8281 59.5625 98.5625 55.4688 98.4375V159.094H44.3125V98.4375C40.2188 98.5625 36.5469 98.8281 33.2969 99.2344C30.0469 99.6406 27.2656 100.062 24.9531 100.5C22.2656 101.031 19.875 101.594 17.7812 102.188V90.2812C23.625 89.2812 29.25 88.6094 34.6562 88.2656C40.0625 87.9219 45.125 87.75 49.8438 87.75ZM123.062 87.6562C127.875 87.6562 132.953 87.8281 138.297 88.1719C143.672 88.5156 149.312 89.1875 155.219 90.1875V102.094C152.594 101.344 149.938 100.734 147.25 100.266C144.562 99.7656 141.859 99.375 139.141 99.0938C136.453 98.8125 133.766 98.6094 131.078 98.4844C128.391 98.3594 125.719 98.2812 123.062 98.25C121.781 98.25 120.359 98.2812 118.797 98.3438C117.266 98.375 115.609 98.4375 113.828 98.5312C112.078 98.625 110.25 98.7656 108.344 98.9531C106.438 99.1406 104.5 99.375 102.531 99.6562V116.719H143.5V128.25H102.531V159H91V90.1875C96.8438 89.1875 102.453 88.5156 107.828 88.1719C113.234 87.8281 118.312 87.6562 123.062 87.6562ZM195.156 86.3438C199.875 86.3438 204.344 86.7656 208.562 87.6094C212.781 88.4219 216.453 89.5781 219.578 91.0781C222.734 92.5781 225.234 94.375 227.078 96.4688C228.922 98.5312 229.844 100.812 229.844 103.312V111.562H217.469V106.969C217.469 105.625 216.953 104.344 215.922 103.125C214.891 101.875 213.406 100.797 211.469 99.8906C209.562 98.9531 207.234 98.2188 204.484 97.6875C201.734 97.125 198.625 96.8438 195.156 96.8438C191.812 96.8438 188.766 97.1094 186.016 97.6406C183.266 98.1406 180.906 98.8438 178.938 99.75C176.969 100.656 175.438 101.734 174.344 102.984C173.281 104.203 172.75 105.531 172.75 106.969V140.062C172.75 141.438 173.281 142.734 174.344 143.953C175.438 145.172 176.969 146.234 178.938 147.141C180.906 148.016 183.266 148.719 186.016 149.25C188.766 149.75 191.812 150 195.156 150C198.625 150 201.734 149.734 204.484 149.203C207.234 148.641 209.562 147.906 211.469 147C213.406 146.094 214.891 145.047 215.922 143.859C216.953 142.641 217.469 141.375 217.469 140.062V135.375H229.844V143.625C229.844 145.281 229.422 146.859 228.578 148.359C227.734 149.828 226.547 151.188 225.016 152.438C223.516 153.688 221.703 154.812 219.578 155.812C217.484 156.781 215.141 157.625 212.547 158.344C209.984 159.031 207.234 159.562 204.297 159.938C201.359 160.312 198.312 160.5 195.156 160.5C192 160.5 188.953 160.312 186.016 159.938C183.078 159.562 180.312 159.031 177.719 158.344C175.156 157.625 172.812 156.781 170.688 155.812C168.594 154.812 166.781 153.688 165.25 152.438C163.75 151.188 162.578 149.828 161.734 148.359C160.891 146.859 160.469 145.281 160.469 143.625V103.312C160.469 101.656 160.891 100.078 161.734 98.5781C162.578 97.0781 163.75 95.7031 165.25 94.4531C166.781 93.2031 168.594 92.0781 170.688 91.0781C172.812 90.0781 175.156 89.2344 177.719 88.5469C180.312 87.8281 183.078 87.2812 186.016 86.9062C188.953 86.5312 192 86.3438 195.156 86.3438Z" fill="white"/>
</svg>
